<?xml version="1.0" standalone="no"?><!DOCTYPE svg PUBLIC "-//W3C//DTD SVG 1.1//EN" "http://www.w3.org/Graphics/SVG/1.1/DTD/svg11.dtd"><svg t="1487577821760" class="icon" style="" viewBox="0 0 1024 1024" version="1.1" xmlns="http://www.w3.org/2000/svg" p-id="2635" xmlns:xlink="http://www.w3.org/1999/xlink" width="24" height="24"><defs><style type="text/css"></style></defs><path d="M177.692516 128.105656c223.260853 1.665942 453.184453-3.335978 672.26817 2.508123-18.977213 231.032864-41.795918 458.226283-60.20315 689.828105-70.347185 18.029632-135.314849 34.597983-208.202902 55.186903-22.952758 6.482645-47.471175 19.730367-67.728544 20.067035-21.386076 0.355087-46.243207-12.983709-70.236668-20.067035-68.886927-20.338211-138.207735-36.732599-208.202902-55.186903-18.448164-229.889831-40.254819-456.419124-60.20315-684.810834C174.967452 132.070968 174.768931 128.527259 177.692516 128.105656zM278.030759 263.562744c-0.481977 28.910447 6.296403 50.561559 7.525394 77.763085 66.405409 7.176446 149.416008-2.252297 215.727273 5.016247-69.645197 28.184923-136.557142 59.103096-205.693756 87.796602 1.318018 30.456662 6.042623 57.504692 7.525394 87.795579 107.805308 4.183276 220.715891-7.795547 318.574662 2.509147 1.230014 38.856983-5.276167 69.977771-5.016247 107.86466-33.943067 12.045337-71.548546 20.428262-105.355513 32.609699-34.645055-10.507308-79.590709-10.714016-110.372783-25.085328-0.697895-23.550369-4.66423-43.832298-5.01727-67.728544-28.429493 0-56.857962 0-85.287455 0 0.102331 48.394197 5.436826 91.557252 12.542664 132.947941 30.869055 8.276501 60.684104 16.755616 92.812849 25.085328 26.606984 6.898107 68.49193 23.134907 95.321996 22.576181 14.755052-0.308015 32.381501-8.6848 47.660486-12.541641 49.588395-12.516058 95.542007-24.696472 142.982482-37.627992 8.519024-87.640036 15.994276-176.320775 22.577205-265.896906-59.370179-1.670036-125.419478 3.342118-180.609451-2.508123 63.509453-26.795273 126.553301-54.05615 188.134845-82.779332 1.601474-30.172183 4.359284-59.189054 7.525394-87.796602C582.881862 265.795599 431.083597 257.609149 278.030759 263.562744z" p-id="2636" fill="#ffffff"></path></svg>