<?xml version="1.0" standalone="no"?><!DOCTYPE svg PUBLIC "-//W3C//DTD SVG 1.1//EN" "http://www.w3.org/Graphics/SVG/1.1/DTD/svg11.dtd"><svg t="1487577310445" class="icon" style="" viewBox="0 0 1024 1024" version="1.1" xmlns="http://www.w3.org/2000/svg" p-id="792" xmlns:xlink="http://www.w3.org/1999/xlink" width="24" height="24"><defs><style type="text/css"></style></defs><path d="M675.045744 924.412891 339.39733 924.412891c-48.330514 0-93.369688-26.005597-117.536952-67.861805l-167.826214-290.677475c-24.175291-41.860222-24.175291-93.867403 0-135.72361l167.826214-290.681489c24.16325-41.860222 69.206438-67.857791 117.536952-67.857791l335.652428 0c48.330514 0 93.369688 25.99757 117.536952 67.857791l167.826214 290.681489c24.175291 41.860222 24.175291 93.867403 0 135.72361L792.582695 856.551086C768.419445 898.411308 723.376257 924.412891 675.045744 924.412891zM339.39733 105.848682c-36.136502 0-69.808512 19.442987-87.886797 50.738811l-167.826214 290.681489c-18.066244 31.299838-18.066244 70.185812 0 101.48565l167.826214 290.677475c18.078285 31.299838 51.750296 50.742825 87.886797 50.742825l335.652428 0c36.136502 0 69.808512-19.442987 87.886797-50.742825l167.826214-290.677475c18.066244-31.299838 18.066244-70.185812 0-101.48565l-167.826214-290.681489c-18.078285-31.29181-51.750296-50.738811-87.886797-50.738811L339.39733 105.848682z" p-id="793" fill="#ffffff"></path><path d="M624.844786 321.395307c-14.859195 10.468066-29.337075 19.38278-45.239865 32.31935-12.021418 9.825853-33.728204 23.260138-34.900242 41.358493-1.810237 27.522825 40.587838 52.982541 18.098354 87.87877-8.529386 13.305843-23.003253 18.997452-41.358493 27.141511-2.195564-4.009815 4.776456-7.373404 7.758731-11.640104 28.181093-40.844723-29.337075-54.407451-21.975713-104.680658C514.328021 345.185271 571.589304 328.242899 624.844786 321.395307L624.844786 321.395307zM445.205873 489.398129c-13.305843 6.205379-35.538441 7.373404-45.239865 20.679246 9.825853 7.373404 24.175291 7.100463 37.481134 7.758731 54.535893 2.452449 122.779012-2.195564 169.299289-10.339623 1.553352 3.367602-6.462265 9.171599-11.640104 12.920515-29.337075 21.449902-120.583448 27.522825-183.516271 23.260138-21.064574-1.424909-69.266645-6.972021-69.796471-25.84103-0.642213-22.874811 58.413252-25.32726 82.716986-27.137497 4.776456-0.385328 13.707226-2.324007 20.679246-1.300481L445.205873 489.398129 445.205873 489.398129zM418.064362 547.554496c6.076937 0.770655-4.262686 4.391129-2.580892 9.043157 22.232598 21.979727 91.374815 15.774348 125.359904 9.043157 7.100463-1.424909 14.220996-5.691609 19.38278-5.177839 12.920515 1.172038 21.193017 16.159675 32.315336 18.098354-39.291371 17.713027-115.148723 26.113971-170.595756 15.501407-14.345424-2.709335-39.291371-10.468066-40.062026-21.975713-1.168024-15.645905 24.689062-22.232598 36.180654-24.560619L418.064362 547.554496 418.064362 547.554496zM434.86625 600.553093c4.009815 1.296467-1.424909 3.496045-1.296467 5.177839 11.768546 20.422361 69.924913 13.1774 99.518874 6.462265 5.948494-1.424909 11.892975-5.563167 16.797874-5.177839 14.987637 1.02754 20.679246 16.673445 33.599762 19.378766-41.23005 25.198818-141.134252 35.409999-182.235859 3.881373-1.938679-23.003253 16.545003-25.584145 33.599762-29.722403L434.86625 600.553093 434.86625 600.553093zM397.385116 639.330694c-12.278303 3.110717-44.067827-1.300481-45.239865 15.501407-0.385328 6.458251 10.853393 14.092553 18.098354 16.797874 42.129148 15.90279 126.784813 18.35524 196.4408 10.339623 32.315336-3.75293 93.056609-14.60231 85.297878-47.816744 9.697411 1.168024 18.35524 7.373404 19.38278 16.797874 3.877359 35.666884-78.068972 50.654521-111.138908 54.279008-71.992035 7.887174-161.941941 6.333822-217.116033-12.920515-17.969912-6.205379-39.676699-17.713027-38.777601-34.900242 1.553352-28.951748 71.337781-36.967364 93.056609-18.098354L397.38913 639.330694 397.385116 639.330694zM507.243613 746.463801c-48.458956-5.306282-95.127745-12.406745-134.415102-29.722403 102.737964 24.685048 252.530045 22.874811 324.393637-29.722403 3.877359-2.837777 7.501846-8.400944 12.920515-7.758731-18.098354 54.279008-87.621885 58.031938-147.335617 67.199523-18.612125 0-37.095807 0-55.579489 0L507.243613 746.459787 507.243613 746.463801zM540.843374 233.500482c9.043157 8.529386 15.501407 24.432176 15.501407 41.358493 0 50.016322-52.982541 78.96807-78.839627 112.439389-5.691609 7.501846-13.048958 18.997452-12.920515 31.01887 0.256885 27.26594 28.437978 57.775053 38.777601 80.136094-18.098354-11.892975-40.062026-27.77971-55.579489-46.520277-15.501407-18.612125-31.01887-48.844284-16.797874-74.958255 21.321459-39.291371 84.784108-62.679952 107.277605-104.680658 5.434724-10.211181 9.697411-25.84103 2.580892-38.777601L540.843374 233.500482 540.843374 233.500482zM617.10211 502.3347c26.627741-22.746368 71.719095-13.835668 73.661788 24.556605 2.195564 44.98298-47.050102 70.181798-82.716986 72.377363 16.545003-15.774348 60.227503-41.101608 51.698116-77.539147-3.496045-14.730752-21.851285-23.645466-42.642918-19.38278L617.10211 502.3347 617.10211 502.3347z" p-id="794" fill="#ffffff"></path></svg>