<?xml version="1.0" standalone="no"?><!DOCTYPE svg PUBLIC "-//W3C//DTD SVG 1.1//EN" "http://www.w3.org/Graphics/SVG/1.1/DTD/svg11.dtd"><svg t="1487577743921" class="icon" style="" viewBox="0 0 1029 1024" version="1.1" xmlns="http://www.w3.org/2000/svg" p-id="1891" xmlns:xlink="http://www.w3.org/1999/xlink" width="24.1171875" height="24"><defs><style type="text/css"></style></defs><path d="M514.56 2.56c-284.16 0-514.56 227.84-514.56 509.44s230.4 509.44 514.56 509.44 514.56-227.84 514.56-509.44-230.4-509.44-514.56-509.44z m282.624 566.272c3.584 69.12-72.192 108.032-127.488 111.616 25.6-24.064 92.672-63.488 79.36-119.296-5.12-22.528-33.792-36.352-65.536-29.696 40.96-35.328 110.592-21.504 113.664 37.376z m-171.008-266.24c-18.432 15.36-51.712 35.84-53.76 63.488-2.56 42.496 62.464 81.408 27.648 135.168-13.312 20.48-35.328 29.184-63.488 41.984-3.584-6.144 7.168-11.264 11.776-17.92 43.52-62.976-45.056-83.968-33.792-161.28 10.752-74.752 99.328-100.864 181.248-111.616-23.04 16.384-45.056 30.208-69.632 50.176z m-228.864 35.84c32.768-60.416 130.56-96.768 165.376-161.28 8.192-15.872 14.848-39.936 4.096-59.904 13.824 13.312 24.064 37.376 24.064 63.488 0 76.8-81.408 121.344-121.344 173.056-8.704 11.776-19.968 29.184-19.968 47.616 0.512 41.984 44.032 89.088 59.904 123.392-27.648-18.432-61.44-43.008-85.504-71.68-24.576-28.16-48.64-74.752-26.624-114.688z m-10.24 175.104c7.168-0.512 20.992-3.584 31.744-2.048-20.48 9.728-54.784 11.264-69.632 31.744 15.36 11.264 37.376 10.752 57.856 11.776 83.968 3.584 188.928-3.584 260.608-15.872 2.56 5.12-9.728 14.336-17.92 19.968-45.056 33.28-185.856 42.496-282.624 35.84-32.256-2.048-106.496-10.752-107.52-39.936-0.512-35.328 90.112-38.912 127.488-41.472z m167.424 186.88c9.216-2.048 18.432-8.704 26.112-8.192 23.04 1.536 31.744 25.6 51.712 29.696-63.488 38.912-217.088 54.272-280.576 6.144-3.072-35.328 25.6-39.424 51.712-45.568 6.144 2.048-2.048 5.12-2.048 8.192 17.92 31.232 107.52 19.968 153.088 9.728z m-171.008-27.648c-22.016-4.096-60.416-15.872-61.44-33.792-1.536-24.064 37.888-34.304 55.808-37.888 9.216 1.024-6.656 6.656-4.096 13.824 34.304 33.792 140.8 24.064 193.024 13.824 10.752-2.048 22.016-8.704 29.696-8.192 19.968 1.536 32.768 25.088 49.664 27.648-60.928 27.648-177.664 40.448-262.656 24.576zM202.24 770.048c2.56-44.544 110.08-56.832 143.36-27.648-18.944 4.608-68.096-2.048-69.632 24.064-0.512 9.728 16.896 21.504 27.648 26.112 65.024 24.576 195.072 28.16 302.592 15.872 49.664-5.632 143.36-22.528 131.584-73.728 14.848 1.536 28.16 11.264 29.696 26.112 6.144 54.784-120.32 77.824-171.008 83.456-110.592 12.288-249.344 9.728-334.336-19.968-28.16-10.24-61.44-27.648-59.904-54.272zM600.064 907.264H514.56c-74.752-8.192-146.432-18.944-206.848-45.568 158.208 37.888 388.608 35.328 499.712-45.568 6.144-4.608 11.776-12.8 19.968-11.776-28.16 82.944-135.168 88.576-227.328 102.912z" fill="#ffffff" p-id="1892"></path></svg>